<svg width="170" height="26" viewBox="0 0 170 26" fill="none" xmlns="http://www.w3.org/2000/svg">
<path fill-rule="evenodd" clip-rule="evenodd" d="M19.5284 18.2H15.1636L10.4631 4.225L10.1274 3.9C9.79163 3.9 9.79163 4.225 9.45588 4.225L4.75538 18.2H0.390625C0.726375 16.9 1.39788 15.275 2.06938 13C2.74088 10.4 3.74813 8.125 4.41963 5.85C5.42688 3.25 5.76263 1.95 6.09838 1.625C6.43413 0.975 7.10563 0.65 7.77713 0.325C8.44863 0 9.12013 0 10.1274 0C10.7989 0 11.4704 0 12.1419 0.325C12.8134 0.65 13.4849 0.975 13.8206 1.625C14.1564 1.95 14.4921 3.25 15.4994 5.85C16.1709 7.475 16.8424 10.075 17.8496 13C18.5211 14.625 19.1926 16.575 19.5284 18.2ZM29.6009 18.2H20.5356V0H29.6009C31.6154 0 33.6299 0.975 34.6371 2.925C35.9801 4.55 36.6516 6.825 36.6516 9.425C36.6516 11.7 35.9801 13.65 34.6371 15.275C33.6299 17.225 31.9511 18.2 29.6009 18.2ZM28.9294 14.3C29.9366 14.3 30.6081 13.65 31.2796 12.675C31.9511 11.7 31.9511 10.4 31.9511 8.775C31.9511 7.475 31.9511 6.5 31.2796 5.525C30.6081 4.55 29.9366 3.9 28.9294 3.9H24.5646V14.3H28.9294Z" fill="url(#paint0_linear)"/>
<path fill-rule="evenodd" clip-rule="evenodd" d="M65.526 9.75L62.5042 0H57.1322L54.4462 9.425L51.4245 0H46.0525L40.3447 18.2H45.7167L48.7385 8.775L51.7602 18.2H51.4245H57.1322L59.8182 8.775L62.84 18.2L60.4897 26H66.1975L71.9052 6.825L72.241 6.175L73.9197 0H68.5477L66.5332 6.825L65.526 9.75Z" fill="url(#paint1_linear)"/>
<path fill-rule="evenodd" clip-rule="evenodd" d="M151.814 14.625C151.814 15.925 151.478 16.9 150.471 17.55C149.464 18.2 148.456 18.525 147.113 18.525C146.106 18.525 145.099 18.2 144.092 17.875C143.084 17.225 142.413 16.25 142.077 14.95C142.077 14.95 141.741 13.65 141.07 11.375C140.398 9.1 139.727 7.475 139.391 6.175C138.72 4.55 138.384 3.9 137.712 3.9L137.377 4.225C137.377 4.55 137.041 4.55 137.041 4.875V18.525H133.012V3.9C133.012 2.6 133.683 1.625 134.691 0.975C135.362 0.325 136.705 0 138.048 0C139.727 0 141.406 0.975 142.413 2.6C143.084 3.9 143.756 5.85 144.427 8.45C145.099 11.375 145.77 13.325 146.106 13.975C146.106 14.3 146.442 14.3 146.442 14.3C146.778 14.625 146.778 14.625 147.113 14.625C147.113 14.625 147.449 14.625 147.449 14.3C147.785 14.3 147.785 13.975 147.785 13.65V0.325H151.814V14.625ZM132.34 18.525H127.64L122.939 4.55C122.939 4.225 122.604 4.225 122.604 4.225C122.268 4.225 122.268 4.225 122.268 4.55L117.567 18.525H112.867C113.203 17.225 113.874 15.6 114.546 13.325C115.553 10.725 116.224 8.45 116.896 6.175C117.903 3.575 118.575 1.95 118.575 1.95C118.91 1.3 119.582 0.975 120.253 0.65C120.925 0.325 121.596 0.325 122.604 0.325C123.275 0.325 124.282 0.325 124.954 0.65C125.625 0.975 125.961 1.3 126.297 1.95C126.633 1.95 127.304 3.575 127.976 5.85C128.647 7.8 129.654 10.075 130.662 13.325C130.997 14.95 131.669 16.575 132.34 18.525ZM162.558 18.525H153.493V0.325H162.558C164.908 0.325 166.587 1.3 167.93 3.25C168.937 4.875 169.609 7.15 169.609 9.425C169.609 12.025 168.937 13.975 167.93 15.6C166.587 17.55 164.908 18.525 162.558 18.525ZM161.886 14.625C162.894 14.625 163.901 13.975 164.237 12.675C164.908 11.7 165.244 10.725 165.244 9.1C165.244 7.8 164.908 6.5 164.237 5.85C163.901 4.55 162.894 4.225 161.886 4.225H157.857V14.625H161.886ZM112.195 18.85L100.444 13.975V18.525H96.4151V12.35C96.4151 11.05 96.7508 9.75 97.4223 8.775C98.4296 7.8 99.4368 7.475 101.116 7.475H106.152C106.823 7.475 107.159 7.15 107.495 6.825C107.495 6.5 107.831 6.175 107.831 5.85C107.831 5.2 107.495 4.875 107.495 4.55C107.159 4.225 106.823 4.225 106.152 4.225H96.4151V0.325H106.823C108.502 0.325 109.845 0.975 110.852 1.95C111.524 2.925 111.86 4.225 111.86 5.85C111.86 7.15 111.524 8.45 110.852 9.425C109.845 10.725 108.502 11.375 106.823 11.375H104.473L112.195 14.625V18.85ZM93.3933 9.425C93.7291 9.75 94.0648 10.4 94.4006 11.05C94.4006 11.7 94.7363 12.35 94.7363 13C94.7363 14.3 94.0648 15.6 93.3933 16.575C92.3861 17.875 91.0431 18.525 89.3643 18.525H78.9561V14.625H88.6928C89.3643 14.625 89.7001 14.3 90.0358 13.975C90.0358 13.65 90.3716 13.325 90.3716 13C90.3716 12.675 90.0358 12.025 90.0358 12.025C89.7001 11.7 89.3643 11.375 88.6928 11.375H78.9561V7.475H88.6928C89.3643 7.475 89.7001 7.15 90.0358 6.825C90.0358 6.5 90.3716 6.175 90.3716 5.85C90.3716 5.2 90.0358 4.875 90.0358 4.55C89.7001 4.225 89.3643 4.225 88.6928 4.225H78.9561V0.325H89.3643C91.0431 0.325 92.3861 0.975 93.3933 1.95C94.0648 3.25 94.7363 4.55 94.7363 5.85C94.7363 6.5 94.4006 7.15 94.4006 7.8C94.0648 8.45 93.7291 9.1 93.3933 9.425Z" fill="url(#paint2_linear)"/>
<defs>
<linearGradient id="paint0_linear" x1="0.390625" y1="9.07198" x2="36.4854" y2="9.07198" gradientUnits="userSpaceOnUse">
<stop stop-color="#1A9A9D"/>
<stop offset="1" stop-color="#1B7ABE"/>
</linearGradient>
<linearGradient id="paint1_linear" x1="40.3887" y1="12.9869" x2="74.0665" y2="12.9869" gradientUnits="userSpaceOnUse">
<stop stop-color="#2774BA"/>
<stop offset="1" stop-color="#8E429D"/>
</linearGradient>
<linearGradient id="paint2_linear" x1="78.899" y1="9.39659" x2="169.57" y2="9.39659" gradientUnits="userSpaceOnUse">
<stop stop-color="#E5097F"/>
<stop offset="1" stop-color="#E0574D"/>
</linearGradient>
</defs>
</svg>
